<svg width="232" height="58" viewBox="0 0 232 58" fill="none" xmlns="http://www.w3.org/2000/svg">
<mask id="mask0_1302_4401" style="mask-type:alpha" maskUnits="userSpaceOnUse" x="0" y="0" width="58" height="58">
<circle cx="28.5918" cy="28.5918" r="28.5918" fill="#C4C4C4"/>
</mask>
<g mask="url(#mask0_1302_4401)">
<circle cx="14.9897" cy="-5.07764" r="23.7214" transform="rotate(-22 14.9897 -5.07764)" fill="#1C1C1C"/>
<circle cx="42.1967" cy="62.2603" r="23.7214" transform="rotate(-22 42.1967 62.2603)" fill="#1C1C1C"/>
<circle cx="-5.07577" cy="42.1948" r="23.7214" transform="rotate(-22 -5.07577 42.1948)" fill="#1C1C1C"/>
<circle cx="61.6381" cy="13.4463" r="23.7214" transform="rotate(-22 61.6381 13.4463)" fill="#1C1C1C"/>
</g>
<path d="M90.8036 44.9718C86.0036 44.9718 82.2769 43.7585 79.6236 41.3318C76.9836 38.9051 75.6636 35.0785 75.6636 29.8518C75.6636 26.4518 76.2769 23.6185 77.5036 21.3518C78.7303 19.0851 80.4903 17.3985 82.7836 16.2918C85.0903 15.1718 87.8703 14.6118 91.1236 14.6118C92.4836 14.6118 93.7569 14.6918 94.9436 14.8518C96.1303 15.0118 97.3303 15.2585 98.5436 15.5918V18.5118C96.2103 17.8585 93.7903 17.5318 91.2836 17.5318C87.3236 17.5318 84.3303 18.5185 82.3036 20.4918C80.2769 22.4518 79.2636 25.5451 79.2636 29.7718C79.2636 34.1185 80.2636 37.2518 82.2636 39.1718C84.2769 41.0918 87.1836 42.0518 90.9836 42.0518C92.3169 42.0518 93.5769 41.9585 94.7636 41.7718C95.9636 41.5851 97.2236 41.2785 98.5436 40.8518V43.7718C96.1969 44.5718 93.6169 44.9718 90.8036 44.9718ZM111.717 22.5518C113.824 22.5518 115.551 22.8051 116.897 23.3118C118.257 23.8185 119.277 24.6651 119.957 25.8518C120.651 27.0385 120.997 28.6385 120.997 30.6518V44.5918H118.157L117.917 42.1318H117.697C116.884 42.9985 115.831 43.6851 114.537 44.1918C113.257 44.6985 111.911 44.9518 110.497 44.9518C108.951 44.9518 107.624 44.7118 106.517 44.2318C105.424 43.7385 104.591 43.0451 104.017 42.1518C103.457 41.2585 103.177 40.2118 103.177 39.0118C103.177 37.1318 103.857 35.6785 105.217 34.6518C106.591 33.6118 108.784 32.9451 111.797 32.6518L117.677 32.0118V30.4918C117.677 29.1185 117.444 28.0518 116.977 27.2918C116.511 26.5185 115.817 25.9785 114.897 25.6718C113.991 25.3651 112.797 25.2118 111.317 25.2118C110.291 25.2118 109.197 25.2985 108.037 25.4718C106.877 25.6451 105.757 25.9118 104.677 26.2718V23.6318C105.691 23.2851 106.824 23.0185 108.077 22.8318C109.331 22.6451 110.544 22.5518 111.717 22.5518ZM111.257 42.4718C112.457 42.4718 113.611 42.2518 114.717 41.8118C115.824 41.3585 116.811 40.6918 117.677 39.8118V34.1918L111.997 34.8118C110.064 35.0385 108.677 35.4651 107.837 36.0918C107.011 36.7185 106.597 37.6051 106.597 38.7518C106.597 39.9385 106.984 40.8585 107.757 41.5118C108.531 42.1518 109.697 42.4718 111.257 42.4718ZM153.078 22.5518C155.384 22.5518 157.184 23.2318 158.478 24.5918C159.784 25.9385 160.438 28.0518 160.438 30.9318V44.5918H157.098V31.0918C157.098 29.1051 156.684 27.6785 155.858 26.8118C155.031 25.9318 153.864 25.4918 152.358 25.4918C151.264 25.4918 150.191 25.7185 149.138 26.1718C148.098 26.6251 147.191 27.3318 146.418 28.2918C146.564 29.1051 146.638 29.9785 146.638 30.9118V44.5918H143.318V31.0918C143.318 29.1051 142.918 27.6785 142.118 26.8118C141.331 25.9318 140.198 25.4918 138.718 25.4918C137.584 25.4918 136.491 25.7451 135.438 26.2518C134.384 26.7451 133.464 27.4918 132.678 28.4918V44.5918H129.318V22.8918H132.118L132.358 25.3718H132.578C133.471 24.4651 134.518 23.7718 135.718 23.2918C136.918 22.7985 138.191 22.5518 139.538 22.5518C140.911 22.5518 142.104 22.8118 143.118 23.3318C144.144 23.8518 144.958 24.6518 145.558 25.7318C146.664 24.6251 147.864 23.8185 149.158 23.3118C150.464 22.8051 151.771 22.5518 153.078 22.5518ZM186.829 34.8118H170.889C170.983 37.4518 171.729 39.3718 173.129 40.5718C174.529 41.7585 176.643 42.3518 179.469 42.3518C181.283 42.3518 183.349 42.0318 185.669 41.3918V44.0118C183.376 44.6518 181.163 44.9718 179.029 44.9718C175.229 44.9718 172.356 44.0585 170.409 42.2318C168.463 40.3918 167.489 37.5651 167.489 33.7518C167.489 31.3385 167.876 29.2985 168.649 27.6318C169.436 25.9518 170.563 24.6851 172.029 23.8318C173.509 22.9785 175.283 22.5518 177.349 22.5518C180.403 22.5518 182.743 23.5185 184.369 25.4518C186.009 27.3851 186.829 30.1851 186.829 33.8518V34.8118ZM177.309 24.9118C175.256 24.9118 173.683 25.5451 172.589 26.8118C171.509 28.0651 170.936 29.9985 170.869 32.6118H183.629C183.563 29.9851 183.003 28.0451 181.949 26.7918C180.896 25.5385 179.349 24.9118 177.309 24.9118ZM193.807 22.8918H196.607L196.867 25.7318H197.087C197.927 24.7851 198.993 24.0385 200.287 23.4918C201.58 22.9451 202.907 22.6718 204.267 22.6718C205.027 22.6718 205.767 22.7385 206.487 22.8718V25.9318C205.833 25.8251 205.047 25.7718 204.127 25.7718C202.9 25.7718 201.64 26.0251 200.347 26.5318C199.053 27.0251 197.993 27.7585 197.167 28.7318V44.5918H193.807V22.8918ZM218.313 22.5518C220.419 22.5518 222.146 22.8051 223.493 23.3118C224.853 23.8185 225.873 24.6651 226.553 25.8518C227.246 27.0385 227.593 28.6385 227.593 30.6518V44.5918H224.753L224.513 42.1318H224.293C223.479 42.9985 222.426 43.6851 221.133 44.1918C219.853 44.6985 218.506 44.9518 217.093 44.9518C215.546 44.9518 214.219 44.7118 213.113 44.2318C212.019 43.7385 211.186 43.0451 210.613 42.1518C210.053 41.2585 209.773 40.2118 209.773 39.0118C209.773 37.1318 210.453 35.6785 211.813 34.6518C213.186 33.6118 215.379 32.9451 218.393 32.6518L224.273 32.0118V30.4918C224.273 29.1185 224.039 28.0518 223.573 27.2918C223.106 26.5185 222.413 25.9785 221.493 25.6718C220.586 25.3651 219.393 25.2118 217.913 25.2118C216.886 25.2118 215.793 25.2985 214.633 25.4718C213.473 25.6451 212.353 25.9118 211.273 26.2718V23.6318C212.286 23.2851 213.419 23.0185 214.673 22.8318C215.926 22.6451 217.139 22.5518 218.313 22.5518ZM217.853 42.4718C219.053 42.4718 220.206 42.2518 221.313 41.8118C222.419 41.3585 223.406 40.6918 224.273 39.8118V34.1918L218.593 34.8118C216.659 35.0385 215.273 35.4651 214.433 36.0918C213.606 36.7185 213.193 37.6051 213.193 38.7518C213.193 39.9385 213.579 40.8585 214.353 41.5118C215.126 42.1518 216.293 42.4718 217.853 42.4718Z" fill="#1C1C1C"/>
</svg>
