<svg width="232" height="56" viewBox="0 0 232 56" fill="none" xmlns="http://www.w3.org/2000/svg">
<path d="M0 24.0569C0 12.6362 9.25829 3.37793 20.679 3.37793V31.9434C20.679 43.364 11.4207 52.6223 0 52.6223V24.0569Z" fill="#1C1C1C"/>
<path d="M23.6787 14.6147C23.6787 8.40881 28.7096 3.37793 34.9155 3.37793C41.1214 3.37793 46.1523 8.4088 46.1523 14.6147V15.2635C46.1523 21.4694 41.1214 26.5002 34.9155 26.5002C28.7096 26.5002 23.6787 21.4694 23.6787 15.2635V14.6147Z" fill="#1C1C1C"/>
<path d="M23.6787 40.7368C23.6787 34.5309 28.7096 29.5 34.9155 29.5C41.1214 29.5 46.1523 34.5309 46.1523 40.7368V41.3855C46.1523 47.5914 41.1214 52.6223 34.9155 52.6223C28.7096 52.6223 23.6787 47.5914 23.6787 41.3855V40.7368Z" fill="#1C1C1C"/>
<path d="M72.9123 44.38C71.4857 44.38 70.0523 44.2667 68.6123 44.04C67.1723 43.8133 65.7923 43.4867 64.4723 43.06V40.18C65.8457 40.6333 67.2723 40.98 68.7523 41.22C70.2457 41.4467 71.6523 41.56 72.9723 41.56C78.3857 41.56 81.0923 39.7267 81.0923 36.06C81.0923 35.0467 80.8723 34.2133 80.4323 33.56C79.9923 32.8933 79.2923 32.3467 78.3323 31.92C77.3857 31.48 76.0923 31.1 74.4523 30.78L72.6523 30.44C69.6523 29.8533 67.459 28.9067 66.0723 27.6C64.6857 26.28 63.9923 24.5267 63.9923 22.34C63.9923 20.6067 64.4257 19.12 65.2923 17.88C66.159 16.64 67.4523 15.6867 69.1723 15.02C70.9057 14.3533 73.039 14.02 75.5723 14.02C78.279 14.02 80.8057 14.3667 83.1523 15.06V17.94C80.7523 17.2067 78.2323 16.84 75.5923 16.84C72.8323 16.84 70.779 17.3 69.4323 18.22C68.099 19.14 67.4323 20.4667 67.4323 22.2C67.4323 23.2 67.6257 24.0333 68.0123 24.7C68.399 25.3667 69.0323 25.92 69.9123 26.36C70.7923 26.8 71.9857 27.1733 73.4923 27.48L75.2923 27.82C77.4923 28.2467 79.2657 28.82 80.6123 29.54C81.9723 30.26 82.959 31.14 83.5723 32.18C84.199 33.22 84.5123 34.46 84.5123 35.9C84.5123 37.6867 84.059 39.22 83.1523 40.5C82.2457 41.7667 80.919 42.7333 79.1723 43.4C77.439 44.0533 75.3523 44.38 72.9123 44.38ZM101.219 41.56C102.059 41.56 103.085 41.4267 104.299 41.16V43.94C102.965 44.2333 101.685 44.38 100.459 44.38C97.8986 44.38 95.9453 43.7533 94.5986 42.5C93.2519 41.2333 92.5786 39.3133 92.5786 36.74V25.08H88.0786V22.3H92.5786L93.1386 14.4H95.9386V22.3H103.939V25.08H95.9386V36.12C95.9386 38.0533 96.3719 39.4467 97.2386 40.3C98.1186 41.14 99.4453 41.56 101.219 41.56ZM117.169 21.96C119.276 21.96 121.002 22.2133 122.349 22.72C123.709 23.2267 124.729 24.0733 125.409 25.26C126.102 26.4467 126.449 28.0467 126.449 30.06V44H123.609L123.369 41.54H123.149C122.336 42.4067 121.282 43.0933 119.989 43.6C118.709 44.1067 117.362 44.36 115.949 44.36C114.402 44.36 113.076 44.12 111.969 43.64C110.876 43.1467 110.042 42.4533 109.469 41.56C108.909 40.6667 108.629 39.62 108.629 38.42C108.629 36.54 109.309 35.0867 110.669 34.06C112.042 33.02 114.236 32.3533 117.249 32.06L123.129 31.42V29.9C123.129 28.5267 122.896 27.46 122.429 26.7C121.962 25.9267 121.269 25.3867 120.349 25.08C119.442 24.7733 118.249 24.62 116.769 24.62C115.742 24.62 114.649 24.7067 113.489 24.88C112.329 25.0533 111.209 25.32 110.129 25.68V23.04C111.142 22.6933 112.276 22.4267 113.529 22.24C114.782 22.0533 115.996 21.96 117.169 21.96ZM116.709 41.88C117.909 41.88 119.062 41.66 120.169 41.22C121.276 40.7667 122.262 40.1 123.129 39.22V33.6L117.449 34.22C115.516 34.4467 114.129 34.8733 113.289 35.5C112.462 36.1267 112.049 37.0133 112.049 38.16C112.049 39.3467 112.436 40.2667 113.209 40.92C113.982 41.56 115.149 41.88 116.709 41.88ZM134.769 22.3H137.569L137.829 25.14H138.049C138.889 24.1933 139.956 23.4467 141.249 22.9C142.543 22.3533 143.869 22.08 145.229 22.08C145.989 22.08 146.729 22.1467 147.449 22.28V25.34C146.796 25.2333 146.009 25.18 145.089 25.18C143.863 25.18 142.603 25.4333 141.309 25.94C140.016 26.4333 138.956 27.1667 138.129 28.14V44H134.769V22.3ZM163.558 41.56C164.398 41.56 165.424 41.4267 166.638 41.16V43.94C165.304 44.2333 164.024 44.38 162.798 44.38C160.238 44.38 158.284 43.7533 156.938 42.5C155.591 41.2333 154.918 39.3133 154.918 36.74V25.08H150.418V22.3H154.918L155.478 14.4H158.278V22.3H166.278V25.08H158.278V36.12C158.278 38.0533 158.711 39.4467 159.578 40.3C160.458 41.14 161.784 41.56 163.558 41.56ZM179.968 44.36C177.435 44.36 175.448 43.6867 174.008 42.34C172.581 40.98 171.868 38.86 171.868 35.98V22.3H175.228V35.82C175.228 37.8067 175.695 39.24 176.628 40.12C177.561 41 178.875 41.44 180.568 41.44C181.848 41.44 183.101 41.1933 184.328 40.7C185.568 40.1933 186.648 39.4533 187.568 38.48V22.3H190.928V44H188.128L187.888 41.6H187.688C186.648 42.4933 185.461 43.18 184.128 43.66C182.808 44.1267 181.421 44.36 179.968 44.36ZM199.569 22.3H202.409L202.649 24.84H202.849C203.689 23.9333 204.716 23.2267 205.929 22.72C207.156 22.2133 208.489 21.96 209.929 21.96C211.836 21.96 213.516 22.3333 214.969 23.08C216.423 23.8133 217.569 24.9867 218.409 26.6C219.263 28.2 219.689 30.24 219.689 32.72C219.689 36.56 218.669 39.4667 216.629 41.44C214.589 43.4 211.596 44.38 207.649 44.38C206.263 44.38 204.689 44.2467 202.929 43.98V52.8H199.569V22.3ZM207.529 41.66C210.503 41.66 212.703 40.9533 214.129 39.54C215.569 38.1267 216.289 35.9467 216.289 33C216.289 27.5333 213.929 24.8 209.209 24.8C207.983 24.8 206.829 25.0333 205.749 25.5C204.669 25.9667 203.729 26.7 202.929 27.7V41.12C203.556 41.2933 204.269 41.4267 205.069 41.52C205.883 41.6133 206.703 41.66 207.529 41.66Z" fill="#1C1C1C"/>
</svg>
