<svg width="234" height="62" viewBox="0 0 234 62" fill="none" xmlns="http://www.w3.org/2000/svg">
<path d="M32.5625 8.81394C32.5625 5.84053 36.1785 4.37507 38.2486 6.50955L57.3227 26.1773C58.5789 27.4726 59.2815 29.2061 59.2815 31.0105V53.7758C59.2815 56.7492 55.6654 58.2146 53.5954 56.0802L34.5212 36.4124C33.265 35.1171 32.5625 33.3836 32.5625 31.5792V8.81394Z" fill="#1C1C1C"/>
<path d="M16.0039 8.16746C16.0039 5.19405 19.62 3.72858 21.69 5.86307L40.4827 25.2406C41.9194 26.722 42.7229 28.7046 42.7229 30.7683V53.1293C42.7229 56.1027 39.1068 57.5682 37.0368 55.4337L17.9626 35.7659C16.7064 34.4706 16.0039 32.7371 16.0039 30.9327V8.16746Z" fill="#1C1C1C"/>
<path d="M0 8.81394C0 5.84053 3.61605 4.37507 5.68611 6.50955L24.7602 26.1773C26.0164 27.4726 26.719 29.2061 26.719 31.0105V53.7758C26.719 56.7492 23.1029 58.2146 21.0329 56.0802L1.95873 36.4124C0.702531 35.1171 0 33.3836 0 31.5792V8.81394Z" fill="#1C1C1C"/>
<path d="M92.9013 47.3517C88.1013 47.3517 84.3746 46.1383 81.7213 43.7117C79.0813 41.285 77.7613 37.4583 77.7613 32.2317C77.7613 28.8317 78.3746 25.9983 79.6013 23.7317C80.8279 21.465 82.5879 19.7783 84.8813 18.6717C87.1879 17.5517 89.9679 16.9917 93.2213 16.9917C94.5813 16.9917 95.8546 17.0717 97.0413 17.2317C98.2279 17.3917 99.4279 17.6383 100.641 17.9717V20.8917C98.3079 20.2383 95.8879 19.9117 93.3813 19.9117C89.4213 19.9117 86.4279 20.8983 84.4013 22.8717C82.3746 24.8317 81.3613 27.925 81.3613 32.1517C81.3613 36.4983 82.3613 39.6317 84.3613 41.5517C86.3746 43.4717 89.2813 44.4317 93.0813 44.4317C94.4146 44.4317 95.6746 44.3383 96.8612 44.1517C98.0613 43.965 99.3213 43.6583 100.641 43.2317V46.1517C98.2946 46.9517 95.7146 47.3517 92.9013 47.3517ZM107.354 46.9717V14.6517H110.714V46.9717H107.354ZM128.525 47.3517C126.392 47.3517 124.545 46.945 122.985 46.1317C121.425 45.3183 120.212 44.0717 119.345 42.3917C118.492 40.7117 118.065 38.6183 118.065 36.1117C118.065 33.645 118.492 31.5783 119.345 29.9117C120.198 28.245 121.405 26.9983 122.965 26.1717C124.525 25.345 126.378 24.9317 128.525 24.9317C131.818 24.9317 134.378 25.865 136.205 27.7317C138.045 29.585 138.965 32.3783 138.965 36.1117C138.965 38.5783 138.532 40.6517 137.665 42.3317C136.812 44.0117 135.598 45.2717 134.025 46.1117C132.465 46.9383 130.632 47.3517 128.525 47.3517ZM128.525 44.6117C133.232 44.6117 135.585 41.7917 135.585 36.1517C135.585 33.1917 134.972 31.045 133.745 29.7117C132.532 28.365 130.792 27.6917 128.525 27.6917C126.258 27.6917 124.512 28.3583 123.285 29.6917C122.072 31.025 121.465 33.1583 121.465 36.0917C121.465 41.7717 123.818 44.6117 128.525 44.6117ZM154.116 47.3317C151.582 47.3317 149.596 46.6583 148.156 45.3117C146.729 43.9517 146.016 41.8317 146.016 38.9517V25.2717H149.376V38.7917C149.376 40.7783 149.842 42.2117 150.776 43.0917C151.709 43.9717 153.022 44.4117 154.716 44.4117C155.996 44.4117 157.249 44.165 158.476 43.6717C159.716 43.165 160.796 42.425 161.716 41.4517V25.2717H165.076V46.9717H162.276L162.036 44.5717H161.836C160.796 45.465 159.609 46.1517 158.276 46.6317C156.956 47.0983 155.569 47.3317 154.116 47.3317ZM182.217 47.3317C180.284 47.3317 178.584 46.9517 177.117 46.1917C175.664 45.4183 174.517 44.2317 173.677 42.6317C172.85 41.0317 172.437 39.0117 172.437 36.5717C172.437 32.745 173.464 29.845 175.517 27.8717C177.57 25.8983 180.564 24.9117 184.497 24.9117C186.017 24.9117 187.584 25.0583 189.197 25.3517V14.6517H192.557V46.9717H189.717L189.497 44.4717H189.277C188.437 45.3783 187.41 46.085 186.197 46.5917C184.984 47.085 183.657 47.3317 182.217 47.3317ZM182.917 44.5117C184.144 44.5117 185.297 44.2783 186.377 43.8117C187.457 43.345 188.397 42.6117 189.197 41.6117V28.1717C187.784 27.8117 186.25 27.6317 184.597 27.6317C181.637 27.6317 179.437 28.3383 177.997 29.7517C176.557 31.165 175.837 33.345 175.837 36.2917C175.837 41.7717 178.197 44.5117 182.917 44.5117ZM201.215 46.9717V14.6517H204.575V46.9717H201.215ZM229.966 25.2717H233.306L219.986 55.7717H216.646L220.486 46.9717H219.646L210.186 25.2717H213.786L221.806 44.2917L229.966 25.2717Z" fill="#1C1C1C"/>
</svg>
