<svg width="235" height="56" viewBox="0 0 235 56" fill="none" xmlns="http://www.w3.org/2000/svg">
<path d="M2.75 9.83105C2.75 8.72649 3.64543 7.83105 4.75 7.83105H11.1154C12.22 7.83105 13.1154 8.72649 13.1154 9.83105V24.0398H2.75V9.83105Z" fill="#1C1C1C"/>
<path d="M3.87939 48.1692H38.3576C38.9813 48.1692 39.487 47.6635 39.487 47.0398V26.6042C39.487 26.2701 39.339 25.9531 39.0829 25.7385L21.8438 11.2943C21.4242 10.9427 20.8128 10.9427 20.3932 11.2943L3.15405 25.7385C2.89795 25.9531 2.75 26.2701 2.75 26.6042V47.0398C2.75 47.6635 3.25565 48.1692 3.87939 48.1692Z" fill="#1C1C1C" stroke="#1C1C1C" stroke-width="5.5" stroke-linecap="round"/>
<path d="M79.2073 44L69.2273 31.78C68.9206 31.7933 68.4473 31.8 67.8073 31.8C66.4206 31.8 64.734 31.72 62.7473 31.56V44H59.3673V15.04C62.4206 14.4 65.4006 14.08 68.3073 14.08C71.174 14.08 73.5273 14.3867 75.3673 15C77.2073 15.6 78.5806 16.5467 79.4873 17.84C80.4073 19.1333 80.8673 20.8133 80.8673 22.88C80.8673 25.2 80.1873 27.0733 78.8273 28.5C77.4673 29.9133 75.454 30.8733 72.7873 31.38L83.1273 44H79.2073ZM62.7473 28.9C63.7473 28.9933 64.6006 29.06 65.3073 29.1C66.0273 29.14 66.9006 29.16 67.9273 29.16C71.314 29.16 73.774 28.6533 75.3073 27.64C76.854 26.6267 77.6273 25.06 77.6273 22.94C77.6273 21.4067 77.3073 20.1867 76.6673 19.28C76.0406 18.3733 75.0673 17.72 73.7473 17.32C72.4273 16.92 70.6806 16.72 68.5073 16.72C67.3473 16.72 66.334 16.7667 65.4673 16.86C64.6006 16.94 63.694 17.0667 62.7473 17.24V28.9ZM106.402 34.22H90.4617C90.555 36.86 91.3017 38.78 92.7017 39.98C94.1017 41.1667 96.215 41.76 99.0417 41.76C100.855 41.76 102.922 41.44 105.242 40.8V43.42C102.948 44.06 100.735 44.38 98.6017 44.38C94.8017 44.38 91.9283 43.4667 89.9817 41.64C88.035 39.8 87.0617 36.9733 87.0617 33.16C87.0617 30.7467 87.4483 28.7067 88.2217 27.04C89.0083 25.36 90.135 24.0933 91.6017 23.24C93.0817 22.3867 94.855 21.96 96.9217 21.96C99.975 21.96 102.315 22.9267 103.942 24.86C105.582 26.7933 106.402 29.5933 106.402 33.26V34.22ZM96.8817 24.32C94.8283 24.32 93.255 24.9533 92.1617 26.22C91.0817 27.4733 90.5083 29.4067 90.4417 32.02H103.202C103.135 29.3933 102.575 27.4533 101.522 26.2C100.468 24.9467 98.9217 24.32 96.8817 24.32ZM120.465 21.96C122.571 21.96 124.298 22.2133 125.645 22.72C127.005 23.2267 128.025 24.0733 128.705 25.26C129.398 26.4467 129.745 28.0467 129.745 30.06V44H126.905L126.665 41.54H126.445C125.631 42.4067 124.578 43.0933 123.285 43.6C122.005 44.1067 120.658 44.36 119.245 44.36C117.698 44.36 116.371 44.12 115.265 43.64C114.171 43.1467 113.338 42.4533 112.765 41.56C112.205 40.6667 111.925 39.62 111.925 38.42C111.925 36.54 112.605 35.0867 113.965 34.06C115.338 33.02 117.531 32.3533 120.545 32.06L126.425 31.42V29.9C126.425 28.5267 126.191 27.46 125.725 26.7C125.258 25.9267 124.565 25.3867 123.645 25.08C122.738 24.7733 121.545 24.62 120.065 24.62C119.038 24.62 117.945 24.7067 116.785 24.88C115.625 25.0533 114.505 25.32 113.425 25.68V23.04C114.438 22.6933 115.571 22.4267 116.825 22.24C118.078 22.0533 119.291 21.96 120.465 21.96ZM120.005 41.88C121.205 41.88 122.358 41.66 123.465 41.22C124.571 40.7667 125.558 40.1 126.425 39.22V33.6L120.745 34.22C118.811 34.4467 117.425 34.8733 116.585 35.5C115.758 36.1267 115.345 37.0133 115.345 38.16C115.345 39.3467 115.731 40.2667 116.505 40.92C117.278 41.56 118.445 41.88 120.005 41.88ZM138.065 44V11.68H141.425V44H138.065ZM160.096 41.56C160.936 41.56 161.962 41.4267 163.176 41.16V43.94C161.842 44.2333 160.562 44.38 159.336 44.38C156.776 44.38 154.822 43.7533 153.476 42.5C152.129 41.2333 151.456 39.3133 151.456 36.74V25.08H146.956V22.3H151.456L152.016 14.4H154.816V22.3H162.816V25.08H154.816V36.12C154.816 38.0533 155.249 39.4467 156.116 40.3C156.996 41.14 158.322 41.56 160.096 41.56ZM177.594 44.38C175.46 44.38 173.614 43.9733 172.054 43.16C170.494 42.3467 169.28 41.1 168.414 39.42C167.56 37.74 167.134 35.6467 167.134 33.14C167.134 30.6733 167.56 28.6067 168.414 26.94C169.267 25.2733 170.474 24.0267 172.034 23.2C173.594 22.3733 175.447 21.96 177.594 21.96C180.887 21.96 183.447 22.8933 185.274 24.76C187.114 26.6133 188.034 29.4067 188.034 33.14C188.034 35.6067 187.6 37.68 186.734 39.36C185.88 41.04 184.667 42.3 183.094 43.14C181.534 43.9667 179.7 44.38 177.594 44.38ZM177.594 41.64C182.3 41.64 184.654 38.82 184.654 33.18C184.654 30.22 184.04 28.0733 182.814 26.74C181.6 25.3933 179.86 24.72 177.594 24.72C175.327 24.72 173.58 25.3867 172.354 26.72C171.14 28.0533 170.534 30.1867 170.534 33.12C170.534 38.8 172.887 41.64 177.594 41.64ZM195.404 22.3H198.204L198.464 25.14H198.684C199.524 24.1933 200.591 23.4467 201.884 22.9C203.178 22.3533 204.504 22.08 205.864 22.08C206.624 22.08 207.364 22.1467 208.084 22.28V25.34C207.431 25.2333 206.644 25.18 205.724 25.18C204.498 25.18 203.238 25.4333 201.944 25.94C200.651 26.4333 199.591 27.1667 198.764 28.14V44H195.404V22.3Z" fill="#1C1C1C"/>
</svg>
