<svg width="251" height="57" viewBox="0 0 251 57" fill="none" xmlns="http://www.w3.org/2000/svg">
<path d="M0 17.1894C0 16.486 0.373312 15.8354 0.980614 15.4805L24.4903 1.74052C25.8098 0.96933 27.4684 1.92105 27.4684 3.44944V24.154L13.88 16.0536V56.2583H1.97937C0.886194 56.2583 0 55.3721 0 54.2789V17.1894Z" fill="#1C1C1C"/>
<path d="M27.4688 24.1797L40.2824 32.0418C40.869 32.4018 41.2266 33.0406 41.2266 33.7289V54.2795C41.2266 55.3727 40.3404 56.2589 39.2472 56.2589H29.4481C28.3549 56.2589 27.4688 55.3727 27.4688 54.2795V24.1797Z" fill="#1C1C1C"/>
<path d="M83.3866 44.1294L79.5466 34.5494H65.2866L61.4466 44.1294H58.0266L70.0666 14.5294H74.8266L86.8666 44.1294H83.3866ZM66.4066 31.7894H78.4266L72.4266 16.8094L66.4066 31.7894ZM92.7762 22.4294H95.5762L95.8362 25.2694H96.0562C96.8962 24.3227 97.9629 23.5761 99.2562 23.0294C100.55 22.4827 101.876 22.2094 103.236 22.2094C103.996 22.2094 104.736 22.2761 105.456 22.4094V25.4694C104.803 25.3627 104.016 25.3094 103.096 25.3094C101.87 25.3094 100.61 25.5627 99.3162 26.0694C98.0229 26.5627 96.9629 27.2961 96.1362 28.2694V44.1294H92.7762V22.4294ZM119.757 44.5094C116.25 44.5094 113.563 43.5761 111.697 41.7094C109.843 39.8294 108.917 37.0227 108.917 33.2894C108.917 29.5694 109.903 26.7761 111.877 24.9094C113.85 23.0294 116.73 22.0894 120.517 22.0894C122.463 22.0894 124.23 22.3227 125.817 22.7894V25.5694C124.95 25.3427 124.117 25.1761 123.317 25.0694C122.517 24.9494 121.67 24.8894 120.777 24.8894C117.937 24.8894 115.823 25.5627 114.437 26.9094C113.063 28.2427 112.377 30.3494 112.377 33.2294C112.377 36.1494 113.023 38.2961 114.317 39.6694C115.61 41.0427 117.537 41.7294 120.097 41.7294C120.95 41.7294 121.83 41.6494 122.737 41.4894C123.643 41.3294 124.67 41.0694 125.817 40.7094V43.4894C123.923 44.1694 121.903 44.5094 119.757 44.5094ZM132.187 11.8094H135.547V24.8494H135.727C136.754 23.9427 137.927 23.2561 139.247 22.7894C140.581 22.3227 141.987 22.0894 143.467 22.0894C145.947 22.0894 147.894 22.7694 149.307 24.1294C150.734 25.4761 151.447 27.5894 151.447 30.4694V44.1294H148.087V30.6294C148.087 28.6427 147.614 27.2161 146.667 26.3494C145.721 25.4827 144.374 25.0494 142.627 25.0494C141.307 25.0494 140.027 25.2961 138.787 25.7894C137.547 26.2827 136.467 27.0094 135.547 27.9694V44.1294H132.187V11.8094ZM159.764 44.1294V22.4294H163.124V44.1294H159.764ZM161.444 17.7094C160.697 17.7094 160.124 17.5361 159.724 17.1894C159.324 16.8427 159.124 16.3494 159.124 15.7094C159.124 15.0694 159.324 14.5761 159.724 14.2294C160.124 13.8694 160.697 13.6894 161.444 13.6894C162.19 13.6894 162.764 13.8694 163.164 14.2294C163.564 14.5761 163.764 15.0694 163.764 15.7094C163.764 16.3494 163.564 16.8427 163.164 17.1894C162.764 17.5361 162.19 17.7094 161.444 17.7094ZM181.794 41.6894C182.634 41.6894 183.661 41.5561 184.874 41.2894V44.0694C183.541 44.3627 182.261 44.5094 181.034 44.5094C178.474 44.5094 176.521 43.8827 175.174 42.6294C173.828 41.3627 173.154 39.4427 173.154 36.8694V25.2094H168.654V22.4294H173.154L173.714 14.5294H176.514V22.4294H184.514V25.2094H176.514V36.2494C176.514 38.1827 176.948 39.5761 177.814 40.4294C178.694 41.2694 180.021 41.6894 181.794 41.6894ZM208.172 34.3494H192.232C192.326 36.9894 193.072 38.9094 194.472 40.1094C195.872 41.2961 197.986 41.8894 200.812 41.8894C202.626 41.8894 204.692 41.5694 207.012 40.9294V43.5494C204.719 44.1894 202.506 44.5094 200.372 44.5094C196.572 44.5094 193.699 43.5961 191.752 41.7694C189.806 39.9294 188.832 37.1027 188.832 33.2894C188.832 30.8761 189.219 28.8361 189.992 27.1694C190.779 25.4894 191.906 24.2227 193.372 23.3694C194.852 22.5161 196.626 22.0894 198.692 22.0894C201.746 22.0894 204.086 23.0561 205.712 24.9894C207.352 26.9227 208.172 29.7227 208.172 33.3894V34.3494ZM198.652 24.4494C196.599 24.4494 195.026 25.0827 193.932 26.3494C192.852 27.6027 192.279 29.5361 192.212 32.1494H204.972C204.906 29.5227 204.346 27.5827 203.292 26.3294C202.239 25.0761 200.692 24.4494 198.652 24.4494ZM224.71 44.5094C221.203 44.5094 218.516 43.5761 216.65 41.7094C214.796 39.8294 213.87 37.0227 213.87 33.2894C213.87 29.5694 214.856 26.7761 216.83 24.9094C218.803 23.0294 221.683 22.0894 225.47 22.0894C227.416 22.0894 229.183 22.3227 230.77 22.7894V25.5694C229.903 25.3427 229.07 25.1761 228.27 25.0694C227.47 24.9494 226.623 24.8894 225.73 24.8894C222.89 24.8894 220.776 25.5627 219.39 26.9094C218.016 28.2427 217.33 30.3494 217.33 33.2294C217.33 36.1494 217.976 38.2961 219.27 39.6694C220.563 41.0427 222.49 41.7294 225.05 41.7294C225.903 41.7294 226.783 41.6494 227.69 41.4894C228.596 41.3294 229.623 41.0694 230.77 40.7094V43.4894C228.876 44.1694 226.856 44.5094 224.71 44.5094ZM247.532 41.6894C248.372 41.6894 249.399 41.5561 250.612 41.2894V44.0694C249.279 44.3627 247.999 44.5094 246.772 44.5094C244.212 44.5094 242.259 43.8827 240.912 42.6294C239.565 41.3627 238.892 39.4427 238.892 36.8694V25.2094H234.392V22.4294H238.892L239.452 14.5294H242.252V22.4294H250.252V25.2094H242.252V36.2494C242.252 38.1827 242.685 39.5761 243.552 40.4294C244.432 41.2694 245.759 41.6894 247.532 41.6894Z" fill="#1C1C1C"/>
</svg>
