<svg width="232" height="56" viewBox="0 0 232 56" fill="none" xmlns="http://www.w3.org/2000/svg">
<mask id="mask0_1302_5527" style="mask-type:alpha" maskUnits="userSpaceOnUse" x="0" y="1" width="49" height="54">
<path d="M19.4512 2.91118C22.2682 1.28482 25.7388 1.28481 28.5558 2.91118L43.4548 11.5131C46.2717 13.1395 48.007 16.1451 48.007 19.3979V36.6017C48.007 39.8545 46.2717 42.8601 43.4548 44.4865L28.5558 53.0884C25.7388 54.7148 22.2682 54.7148 19.4513 53.0884L4.55227 44.4865C1.73532 42.8601 0 39.8545 0 36.6017V19.3979C0 16.1451 1.73531 13.1395 4.55226 11.5131L19.4512 2.91118Z" fill="#C4C4C4"/>
</mask>
<g mask="url(#mask0_1302_5527)">
<rect width="30.3817" height="30.3817" transform="matrix(0.866025 0.5 -0.866025 0.5 24.0039 -0.168945)" fill="#1C1C1C"/>
<rect width="27.9554" height="27.9554" transform="matrix(0.866025 0.5 -2.20305e-08 1 -0.207031 15.2417)" fill="#1C1C1C"/>
<rect width="27.9554" height="27.9554" transform="matrix(0.866025 -0.5 2.20305e-08 1 24.0039 29.2231)" fill="#1C1C1C"/>
</g>
<path d="M83.8268 28.74C85.9202 29.0867 87.4868 29.88 88.5268 31.12C89.5802 32.3467 90.1068 33.92 90.1068 35.84C90.1068 37.6933 89.6468 39.24 88.7268 40.48C87.8202 41.72 86.3402 42.66 84.2868 43.3C82.2335 43.94 79.5202 44.26 76.1468 44.26C73.4402 44.26 70.6868 44.0733 67.8868 43.7V15.04C69.3802 14.72 70.8735 14.48 72.3668 14.32C73.8602 14.16 75.4468 14.08 77.1268 14.08C81.3402 14.08 84.4135 14.7467 86.3468 16.08C88.2935 17.4 89.2668 19.3933 89.2668 22.06C89.2668 23.78 88.8135 25.22 87.9068 26.38C87.0135 27.54 85.6535 28.3267 83.8268 28.74ZM77.4268 16.7C75.0802 16.7 73.0202 16.8667 71.2468 17.2V27.5H78.4068C81.0068 27.5 82.9202 27.0733 84.1468 26.22C85.3868 25.3667 86.0068 24.0133 86.0068 22.16C86.0068 20.8533 85.7135 19.8067 85.1268 19.02C84.5535 18.22 83.6402 17.6333 82.3868 17.26C81.1468 16.8867 79.4935 16.7 77.4268 16.7ZM76.8468 41.64C79.3935 41.64 81.4002 41.42 82.8668 40.98C84.3335 40.54 85.3735 39.8933 85.9868 39.04C86.6002 38.1867 86.9068 37.08 86.9068 35.72C86.9068 33.7733 86.2535 32.3533 84.9468 31.46C83.6535 30.5667 81.6135 30.12 78.8268 30.12H71.2468V41.28C72.1002 41.4133 72.9602 41.5067 73.8268 41.56C74.6935 41.6133 75.7002 41.64 76.8468 41.64ZM96.8612 44V11.68H100.221V44H96.8612ZM118.032 44.38C115.899 44.38 114.052 43.9733 112.492 43.16C110.932 42.3467 109.719 41.1 108.852 39.42C107.999 37.74 107.572 35.6467 107.572 33.14C107.572 30.6733 107.999 28.6067 108.852 26.94C109.705 25.2733 110.912 24.0267 112.472 23.2C114.032 22.3733 115.885 21.96 118.032 21.96C121.325 21.96 123.885 22.8933 125.712 24.76C127.552 26.6133 128.472 29.4067 128.472 33.14C128.472 35.6067 128.039 37.68 127.172 39.36C126.319 41.04 125.105 42.3 123.532 43.14C121.972 43.9667 120.139 44.38 118.032 44.38ZM118.032 41.64C122.739 41.64 125.092 38.82 125.092 33.18C125.092 30.22 124.479 28.0733 123.252 26.74C122.039 25.3933 120.299 24.72 118.032 24.72C115.765 24.72 114.019 25.3867 112.792 26.72C111.579 28.0533 110.972 30.1867 110.972 33.12C110.972 38.8 113.325 41.64 118.032 41.64ZM145.559 44.38C142.052 44.38 139.365 43.4467 137.499 41.58C135.645 39.7 134.719 36.8933 134.719 33.16C134.719 29.44 135.705 26.6467 137.679 24.78C139.652 22.9 142.532 21.96 146.319 21.96C148.265 21.96 150.032 22.1933 151.619 22.66V25.44C150.752 25.2133 149.919 25.0467 149.119 24.94C148.319 24.82 147.472 24.76 146.579 24.76C143.739 24.76 141.625 25.4333 140.239 26.78C138.865 28.1133 138.179 30.22 138.179 33.1C138.179 36.02 138.825 38.1667 140.119 39.54C141.412 40.9133 143.339 41.6 145.899 41.6C146.752 41.6 147.632 41.52 148.539 41.36C149.445 41.2 150.472 40.94 151.619 40.58V43.36C149.725 44.04 147.705 44.38 145.559 44.38ZM174.449 44L165.929 34.3H161.349V44H157.989V11.68H161.349V31.48H165.889L173.829 22.3H177.609L168.649 32.82L178.289 44H174.449ZM183.105 44V11.68H186.465V44H183.105ZM211.856 22.3H215.196L201.876 52.8H198.536L202.376 44H201.536L192.076 22.3H195.676L203.696 41.32L211.856 22.3Z" fill="#1C1C1C"/>
</svg>
