<svg width="243" height="56" viewBox="0 0 243 56" fill="none" xmlns="http://www.w3.org/2000/svg">
<rect x="17.9717" y="41.7036" width="29.4123" height="8.99589" fill="#1C1C1C"/>
<circle cx="17.9715" cy="32.7278" r="17.9715" fill="#1C1C1C"/>
<circle cx="45.8733" cy="27.9998" r="22.6995" fill="#1C1C1C"/>
<path d="M102.193 44.38C97.3932 44.38 93.6666 43.1667 91.0132 40.74C88.3732 38.3133 87.0532 34.4867 87.0532 29.26C87.0532 25.86 87.6666 23.0267 88.8932 20.76C90.1199 18.4933 91.8799 16.8067 94.1732 15.7C96.4799 14.58 99.2599 14.02 102.513 14.02C103.873 14.02 105.147 14.1 106.333 14.26C107.52 14.42 108.72 14.6667 109.933 15V17.92C107.6 17.2667 105.18 16.94 102.673 16.94C98.7132 16.94 95.7199 17.9267 93.6932 19.9C91.6666 21.86 90.6532 24.9533 90.6532 29.18C90.6532 33.5267 91.6532 36.66 93.6532 38.58C95.6666 40.5 98.5732 41.46 102.373 41.46C103.707 41.46 104.967 41.3667 106.153 41.18C107.353 40.9933 108.613 40.6867 109.933 40.26V43.18C107.587 43.98 105.007 44.38 102.193 44.38ZM116.646 44V11.68H120.006V44H116.646ZM137.817 44.38C135.684 44.38 133.837 43.9733 132.277 43.16C130.717 42.3467 129.504 41.1 128.637 39.42C127.784 37.74 127.357 35.6467 127.357 33.14C127.357 30.6733 127.784 28.6067 128.637 26.94C129.49 25.2733 130.697 24.0267 132.257 23.2C133.817 22.3733 135.67 21.96 137.817 21.96C141.11 21.96 143.67 22.8933 145.497 24.76C147.337 26.6133 148.257 29.4067 148.257 33.14C148.257 35.6067 147.824 37.68 146.957 39.36C146.104 41.04 144.89 42.3 143.317 43.14C141.757 43.9667 139.924 44.38 137.817 44.38ZM137.817 41.64C142.524 41.64 144.877 38.82 144.877 33.18C144.877 30.22 144.264 28.0733 143.037 26.74C141.824 25.3933 140.084 24.72 137.817 24.72C135.55 24.72 133.804 25.3867 132.577 26.72C131.364 28.0533 130.757 30.1867 130.757 33.12C130.757 38.8 133.11 41.64 137.817 41.64ZM163.408 44.36C160.874 44.36 158.888 43.6867 157.448 42.34C156.021 40.98 155.308 38.86 155.308 35.98V22.3H158.668V35.82C158.668 37.8067 159.134 39.24 160.068 40.12C161.001 41 162.314 41.44 164.008 41.44C165.288 41.44 166.541 41.1933 167.768 40.7C169.008 40.1933 170.088 39.4533 171.008 38.48V22.3H174.368V44H171.568L171.328 41.6H171.128C170.088 42.4933 168.901 43.18 167.568 43.66C166.248 44.1267 164.861 44.36 163.408 44.36ZM191.509 44.36C189.576 44.36 187.876 43.98 186.409 43.22C184.956 42.4467 183.809 41.26 182.969 39.66C182.142 38.06 181.729 36.04 181.729 33.6C181.729 29.7733 182.756 26.8733 184.809 24.9C186.862 22.9267 189.856 21.94 193.789 21.94C195.309 21.94 196.876 22.0867 198.489 22.38V11.68H201.849V44H199.009L198.789 41.5H198.569C197.729 42.4067 196.702 43.1133 195.489 43.62C194.276 44.1133 192.949 44.36 191.509 44.36ZM192.209 41.54C193.436 41.54 194.589 41.3067 195.669 40.84C196.749 40.3733 197.689 39.64 198.489 38.64V25.2C197.076 24.84 195.542 24.66 193.889 24.66C190.929 24.66 188.729 25.3667 187.289 26.78C185.849 28.1933 185.129 30.3733 185.129 33.32C185.129 38.8 187.489 41.54 192.209 41.54ZM210.507 44V11.68H213.867V44H210.507ZM239.258 22.3H242.598L229.278 52.8H225.938L229.778 44H228.938L219.478 22.3H223.078L231.098 41.32L239.258 22.3Z" fill="#1C1C1C"/>
</svg>
