<svg width="256" height="56" viewBox="0 0 256 56" fill="none" xmlns="http://www.w3.org/2000/svg">
<path d="M46.1586 16.7416H37.6207C32.5784 16.7416 21.2055 14.1905 24.5669 0.0810547C22.468 0.911569 20.6672 2.35376 19.3982 4.22048C18.1291 6.08719 17.4504 8.29225 17.4502 10.5495V14.6774C17.4502 15.3998 17.4747 16.1064 17.5238 16.7973C28.2745 17.5167 38.9163 25.1729 39.8932 39.2016C40.4488 39.2395 41.005 39.2585 41.5617 39.2585H46.1586C49.1445 39.2585 52.008 38.0724 54.1193 35.9611C56.2306 33.8498 57.4167 30.9863 57.4167 28.0005C57.4167 25.0146 56.2306 22.1511 54.1193 20.0398C52.008 17.9285 49.1445 16.7424 46.1586 16.7424V16.7416Z" fill="#1C1C1C"/>
<path d="M15.8553 16.7417H11.258C8.27222 16.7417 5.40869 17.9278 3.2974 20.0391C1.18611 22.1504 0 25.0139 0 27.9997C0 30.9855 1.18611 33.8491 3.2974 35.9604C5.40869 38.0717 8.27222 39.2578 11.258 39.2578H19.7956C24.8374 39.2578 36.2103 41.8088 32.8495 55.9189C34.9482 55.0881 36.7489 53.6458 38.0179 51.779C39.2868 49.9123 39.9655 47.7073 39.9659 45.4501V41.3216C39.9659 25.1858 27.6767 16.7417 15.8553 16.7417Z" fill="#1C1C1C"/>
<path d="M85.617 44.22C82.777 44.22 80.0037 44.0467 77.297 43.7V15.04C78.657 14.7467 80.137 14.52 81.737 14.36C83.3503 14.2 84.8903 14.12 86.357 14.12C91.8103 14.12 95.9303 15.38 98.717 17.9C101.504 20.4067 102.897 24.1733 102.897 29.2C102.897 34.2933 101.457 38.0733 98.577 40.54C95.7103 42.9933 91.3903 44.22 85.617 44.22ZM86.297 41.36C90.7103 41.36 93.9903 40.3733 96.137 38.4C98.297 36.4133 99.377 33.34 99.377 29.18C99.377 25.0333 98.297 21.96 96.137 19.96C93.9903 17.96 90.737 16.96 86.377 16.96C84.6837 16.96 82.797 17.1267 80.717 17.46V41.02C82.3037 41.2467 84.1637 41.36 86.297 41.36ZM119.67 44.38C117.537 44.38 115.69 43.9733 114.13 43.16C112.57 42.3467 111.357 41.1 110.49 39.42C109.637 37.74 109.21 35.6467 109.21 33.14C109.21 30.6733 109.637 28.6067 110.49 26.94C111.343 25.2733 112.55 24.0267 114.11 23.2C115.67 22.3733 117.523 21.96 119.67 21.96C122.963 21.96 125.523 22.8933 127.35 24.76C129.19 26.6133 130.11 29.4067 130.11 33.14C130.11 35.6067 129.677 37.68 128.81 39.36C127.957 41.04 126.743 42.3 125.17 43.14C123.61 43.9667 121.777 44.38 119.67 44.38ZM119.67 41.64C124.377 41.64 126.73 38.82 126.73 33.18C126.73 30.22 126.117 28.0733 124.89 26.74C123.677 25.3933 121.937 24.72 119.67 24.72C117.403 24.72 115.657 25.3867 114.43 26.72C113.217 28.0533 112.61 30.1867 112.61 33.12C112.61 38.8 114.963 41.64 119.67 41.64ZM147.197 44.38C143.69 44.38 141.004 43.4467 139.137 41.58C137.284 39.7 136.357 36.8933 136.357 33.16C136.357 29.44 137.344 26.6467 139.317 24.78C141.29 22.9 144.17 21.96 147.957 21.96C149.904 21.96 151.67 22.1933 153.257 22.66V25.44C152.39 25.2133 151.557 25.0467 150.757 24.94C149.957 24.82 149.11 24.76 148.217 24.76C145.377 24.76 143.264 25.4333 141.877 26.78C140.504 28.1133 139.817 30.22 139.817 33.1C139.817 36.02 140.464 38.1667 141.757 39.54C143.05 40.9133 144.977 41.6 147.537 41.6C148.39 41.6 149.27 41.52 150.177 41.36C151.084 41.2 152.11 40.94 153.257 40.58V43.36C151.364 44.04 149.344 44.38 147.197 44.38ZM170.019 41.56C170.859 41.56 171.886 41.4267 173.099 41.16V43.94C171.766 44.2333 170.486 44.38 169.259 44.38C166.699 44.38 164.746 43.7533 163.399 42.5C162.053 41.2333 161.379 39.3133 161.379 36.74V25.08H156.879V22.3H161.379L161.939 14.4H164.739V22.3H172.739V25.08H164.739V36.12C164.739 38.0533 165.173 39.4467 166.039 40.3C166.919 41.14 168.246 41.56 170.019 41.56ZM187.517 44.38C185.384 44.38 183.537 43.9733 181.977 43.16C180.417 42.3467 179.204 41.1 178.337 39.42C177.484 37.74 177.057 35.6467 177.057 33.14C177.057 30.6733 177.484 28.6067 178.337 26.94C179.19 25.2733 180.397 24.0267 181.957 23.2C183.517 22.3733 185.37 21.96 187.517 21.96C190.81 21.96 193.37 22.8933 195.197 24.76C197.037 26.6133 197.957 29.4067 197.957 33.14C197.957 35.6067 197.524 37.68 196.657 39.36C195.804 41.04 194.59 42.3 193.017 43.14C191.457 43.9667 189.624 44.38 187.517 44.38ZM187.517 41.64C192.224 41.64 194.577 38.82 194.577 33.18C194.577 30.22 193.964 28.0733 192.737 26.74C191.524 25.3933 189.784 24.72 187.517 24.72C185.25 24.72 183.504 25.3867 182.277 26.72C181.064 28.0533 180.457 30.1867 180.457 33.12C180.457 38.8 182.81 41.64 187.517 41.64ZM205.328 22.3H208.128L208.388 25.14H208.608C209.448 24.1933 210.514 23.4467 211.808 22.9C213.101 22.3533 214.428 22.08 215.788 22.08C216.548 22.08 217.288 22.1467 218.008 22.28V25.34C217.354 25.2333 216.568 25.18 215.648 25.18C214.421 25.18 213.161 25.4333 211.868 25.94C210.574 26.4333 209.514 27.1667 208.688 28.14V44H205.328V22.3ZM223.568 44V11.68H226.928V44H223.568ZM252.319 22.3H255.659L242.339 52.8H238.999L242.839 44H241.999L232.539 22.3H236.139L244.159 41.32L252.319 22.3Z" fill="#1C1C1C"/>
</svg>
